<svg width="22" height="20" viewBox="0 0 22 20" fill="none" xmlns="http://www.w3.org/2000/svg">
<path d="M17.5308 20C18.8462 18.6883 19.8893 17.1296 20.6003 15.4135C21.3113 13.6973 21.6762 11.8576 21.6739 10C21.6762 8.14241 21.3113 6.30267 20.6003 4.58654C19.8893 2.8704 18.8462 1.31169 17.5308 0L16.3528 1.17637C17.5134 2.33376 18.4338 3.70911 19.0612 5.22336C19.6885 6.73762 20.0104 8.36093 20.0084 10C20.0084 13.4459 18.6107 16.5657 16.3528 18.8236L17.5308 20Z" fill="white"/>
<path d="M15.1764 17.6473C16.1822 16.6441 16.9798 15.4521 17.5235 14.1398C18.0672 12.8274 18.3462 11.4205 18.3444 10C18.3462 8.57948 18.0672 7.17262 17.5235 5.86025C16.9798 4.54788 16.1822 3.35589 15.1764 2.35275L14 3.52913C14.8511 4.37795 15.526 5.38659 15.986 6.49708C16.446 7.60757 16.682 8.79801 16.6805 10C16.6825 11.2022 16.4468 12.3929 15.9871 13.5036C15.5273 14.6144 14.8526 15.6234 14.0017 16.4726L15.1764 17.6473Z" fill="white"/>
<path d="M12.8236 15.2945C13.5199 14.6 14.0721 13.7747 14.4485 12.8661C14.8248 11.9575 15.0179 10.9835 15.0166 10C15.0179 9.01653 14.8248 8.04251 14.4485 7.1339C14.0721 6.22529 13.5199 5.40001 12.8236 4.70549L11.6473 5.88186C12.1888 6.42208 12.6183 7.064 12.911 7.77073C13.2037 8.47746 13.3538 9.23506 13.3527 10C13.3537 10.7649 13.2035 11.5225 12.9109 12.2292C12.6182 12.9359 12.1888 13.5779 11.6473 14.1181L12.8236 15.2945ZM9.51248 2.59567C9.65343 2.66357 9.77238 2.76984 9.85567 2.90229C9.93896 3.03473 9.98322 3.18797 9.98336 3.34443V16.6556C9.98314 16.8121 9.93875 16.9654 9.8553 17.0979C9.77185 17.2303 9.65272 17.3365 9.5116 17.4043C9.37049 17.4721 9.21311 17.4987 9.05757 17.481C8.90202 17.4634 8.75461 17.4022 8.63228 17.3045L4.7005 14.1597H0.831947C0.611301 14.1597 0.399692 14.0721 0.243672 13.9161C0.0876512 13.76 0 13.5484 0 13.3278V6.67221C0 6.45157 0.0876512 6.23996 0.243672 6.08394C0.399692 5.92792 0.611301 5.84027 0.831947 5.84027H4.7005L8.63228 2.69551C8.7547 2.59765 8.90226 2.53636 9.05799 2.5187C9.21371 2.50104 9.37126 2.52772 9.51248 2.59567Z" fill="white"/>
</svg>
