<svg width="22" height="15" viewBox="0 0 22 15" fill="none" xmlns="http://www.w3.org/2000/svg">
<path d="M9.51248 0.0822757C9.65343 0.150177 9.77238 0.256448 9.85567 0.388889C9.93896 0.52133 9.98322 0.674573 9.98336 0.831028V14.1422C9.98314 14.2987 9.93875 14.452 9.8553 14.5845C9.77185 14.7169 9.65272 14.8231 9.5116 14.8909C9.37049 14.9587 9.21311 14.9853 9.05757 14.9676C8.90202 14.95 8.75461 14.8888 8.63228 14.7911L4.7005 11.6463H0.831947C0.611301 11.6463 0.399692 11.5587 0.243672 11.4027C0.0876513 11.2466 0 11.035 0 10.8144V4.15881C0 3.93817 0.0876513 3.72656 0.243672 3.57054C0.399692 3.41452 0.611301 3.32687 0.831947 3.32687H4.7005L8.63228 0.182109C8.7547 0.0842521 8.90226 0.0229631 9.05799 0.00530065C9.21371 -0.0123618 9.37126 0.014321 9.51248 0.0822757Z" fill="white"/>
<path d="M21.6573 11.6911C21.4422 11.8856 21.1504 11.9948 20.8461 11.9948C20.5419 11.9948 20.2501 11.8856 20.0349 11.6911L17.5005 9.0722L14.966 11.6902C14.8598 11.7878 14.7333 11.8654 14.5937 11.9186C14.4541 11.9718 14.3043 11.9994 14.1529 12C14.0014 12.0005 13.8514 11.974 13.7113 11.9219C13.5713 11.8697 13.4441 11.793 13.337 11.6962C13.2299 11.5994 13.1451 11.4844 13.0874 11.3578C13.0297 11.2312 13.0003 11.0955 13.001 10.9586C13.0016 10.8217 13.0322 10.6862 13.091 10.5601C13.1498 10.4339 13.2357 10.3195 13.3436 10.2235L15.9804 7.50087L13.3427 4.77653C13.2347 4.68051 13.1488 4.56611 13.09 4.43994C13.0312 4.31377 13.0006 4.17832 13 4.04141C12.9994 3.90449 13.0288 3.76882 13.0864 3.64222C13.1441 3.51562 13.2289 3.4006 13.336 3.30378C13.4431 3.20697 13.5703 3.13028 13.7104 3.07814C13.8504 3.02601 14.0005 2.99945 14.1519 3.00001C14.3034 3.00057 14.4532 3.02823 14.5927 3.08139C14.7323 3.13456 14.8588 3.21218 14.9651 3.30978L17.5005 5.92953L20.0349 3.30978C20.1412 3.21218 20.2677 3.13456 20.4073 3.08139C20.5468 3.02823 20.6966 3.00057 20.8481 3.00001C20.9995 2.99945 21.1496 3.02601 21.2896 3.07814C21.4297 3.13028 21.5569 3.20697 21.664 3.30378C21.7711 3.4006 21.8559 3.51562 21.9136 3.64222C21.9712 3.76882 22.0006 3.90449 22 4.04141C21.9994 4.17832 21.9688 4.31377 21.91 4.43994C21.8512 4.56611 21.7653 4.68051 21.6573 4.77653L19.0206 7.50087L21.6573 10.2235C21.764 10.3198 21.8486 10.4342 21.9064 10.5601C21.9641 10.686 21.9938 10.821 21.9938 10.9573C21.9938 11.0936 21.9641 11.2285 21.9064 11.3545C21.8486 11.4804 21.764 11.5948 21.6573 11.6911V11.6911Z" fill="white"/>
</svg>
