<svg width="108" height="42" viewBox="0 0 108 42" fill="none" xmlns="http://www.w3.org/2000/svg">
<rect x="88.0439" y="25.9615" width="4.60535" height="6.90803" fill="#070E16"/>
<rect x="95.7197" y="10.6104" width="4.60535" height="22.2592" fill="#070E16"/>
<rect x="103.305" y="21.1304" width="4.69565" height="11.7391" fill="#070E16"/>
<path d="M9.824 32L0.768 9.6H4.768L11.84 27.744H10.432L17.568 9.6H21.504L12.384 32H9.824ZM28.3068 32.32C26.7708 32.32 25.3841 31.9787 24.1468 31.296C22.9308 30.592 21.9601 29.632 21.2348 28.416C20.5308 27.2 20.1788 25.8347 20.1788 24.32C20.1788 22.8053 20.5308 21.4507 21.2348 20.256C21.9388 19.04 22.8881 18.08 24.0828 17.376C25.2988 16.672 26.6428 16.32 28.1148 16.32C29.5441 16.32 30.8028 16.6507 31.8908 17.312C33.0001 17.9733 33.8641 18.88 34.4828 20.032C35.1228 21.184 35.4428 22.496 35.4428 23.968C35.4428 24.224 35.4214 24.4907 35.3787 24.768C35.3574 25.024 35.3148 25.312 35.2508 25.632H22.6428V22.752H33.4268L32.1148 23.904C32.0721 22.9653 31.8908 22.176 31.5708 21.536C31.2508 20.896 30.7921 20.4053 30.1948 20.064C29.6188 19.7227 28.9041 19.552 28.0508 19.552C27.1548 19.552 26.3761 19.744 25.7148 20.128C25.0534 20.512 24.5414 21.056 24.1788 21.76C23.8161 22.4427 23.6348 23.264 23.6348 24.224C23.6348 25.184 23.8268 26.0267 24.2108 26.752C24.5948 27.4773 25.1388 28.0427 25.8428 28.448C26.5468 28.832 27.3574 29.024 28.2748 29.024C29.0641 29.024 29.7894 28.8853 30.4508 28.608C31.1334 28.3307 31.7094 27.9253 32.1788 27.392L34.4188 29.664C33.6721 30.5387 32.7654 31.2 31.6988 31.648C30.6321 32.096 29.5014 32.32 28.3068 32.32ZM38.2645 32V16.64H41.7845V32H38.2645ZM41.7845 23.456L40.5685 22.848C40.5685 20.9067 40.9952 19.3387 41.8485 18.144C42.7232 16.928 44.0352 16.32 45.7845 16.32C46.5525 16.32 47.2458 16.4587 47.8645 16.736C48.4832 17.0133 49.0592 17.4613 49.5925 18.08L47.2885 20.448C47.0112 20.1493 46.7018 19.936 46.3605 19.808C46.0192 19.68 45.6245 19.616 45.1765 19.616C44.1952 19.616 43.3845 19.9253 42.7445 20.544C42.1045 21.1627 41.7845 22.1333 41.7845 23.456ZM55.976 32.32C55.1227 32.32 54.3013 32.2133 53.512 32C52.7227 31.7653 51.9973 31.4453 51.336 31.04C50.6747 30.6133 50.0987 30.1013 49.608 29.504L51.848 27.264C52.3813 27.8827 52.9893 28.352 53.672 28.672C54.376 28.9707 55.1653 29.12 56.04 29.12C56.8293 29.12 57.4267 29.0027 57.832 28.768C58.2373 28.5333 58.44 28.192 58.44 27.744C58.44 27.2747 58.248 26.912 57.864 26.656C57.48 26.4 56.9787 26.1867 56.36 26.016C55.7627 25.824 55.1227 25.632 54.44 25.44C53.7787 25.248 53.1387 24.992 52.52 24.672C51.9227 24.3307 51.432 23.872 51.048 23.296C50.664 22.72 50.472 21.9733 50.472 21.056C50.472 20.0747 50.696 19.232 51.144 18.528C51.6133 17.824 52.264 17.28 53.096 16.896C53.9493 16.512 54.9627 16.32 56.136 16.32C57.3733 16.32 58.4613 16.544 59.4 16.992C60.36 17.4187 61.16 18.0693 61.8 18.944L59.56 21.184C59.112 20.6293 58.6 20.2133 58.024 19.936C57.448 19.6587 56.7867 19.52 56.04 19.52C55.336 19.52 54.792 19.6267 54.408 19.84C54.024 20.0533 53.832 20.3627 53.832 20.768C53.832 21.1947 54.024 21.5253 54.408 21.76C54.792 21.9947 55.2827 22.1973 55.88 22.368C56.4987 22.5387 57.1387 22.7307 57.8 22.944C58.4827 23.136 59.1227 23.4133 59.72 23.776C60.3387 24.1173 60.84 24.5867 61.224 25.184C61.608 25.76 61.8 26.5173 61.8 27.456C61.8 28.9493 61.2773 30.1333 60.232 31.008C59.1867 31.8827 57.768 32.32 55.976 32.32ZM71.838 32.32C70.302 32.32 68.9153 31.9787 67.678 31.296C66.462 30.592 65.4913 29.632 64.766 28.416C64.062 27.2 63.71 25.8347 63.71 24.32C63.71 22.8053 64.062 21.4507 64.766 20.256C65.47 19.04 66.4193 18.08 67.614 17.376C68.83 16.672 70.174 16.32 71.646 16.32C73.0753 16.32 74.334 16.6507 75.422 17.312C76.5313 17.9733 77.3953 18.88 78.014 20.032C78.654 21.184 78.974 22.496 78.974 23.968C78.974 24.224 78.9527 24.4907 78.91 24.768C78.8887 25.024 78.846 25.312 78.782 25.632H66.174V22.752H76.958L75.646 23.904C75.6033 22.9653 75.422 22.176 75.102 21.536C74.782 20.896 74.3233 20.4053 73.726 20.064C73.15 19.7227 72.4353 19.552 71.582 19.552C70.686 19.552 69.9073 19.744 69.246 20.128C68.5847 20.512 68.0727 21.056 67.71 21.76C67.3473 22.4427 67.166 23.264 67.166 24.224C67.166 25.184 67.358 26.0267 67.742 26.752C68.126 27.4773 68.67 28.0427 69.374 28.448C70.078 28.832 70.8887 29.024 71.806 29.024C72.5953 29.024 73.3207 28.8853 73.982 28.608C74.6647 28.3307 75.2407 27.9253 75.71 27.392L77.95 29.664C77.2033 30.5387 76.2967 31.2 75.23 31.648C74.1633 32.096 73.0327 32.32 71.838 32.32Z" fill="#070E16"/>
</svg>
