<svg width="92" height="35" viewBox="0 0 92 35" fill="none" xmlns="http://www.w3.org/2000/svg">
<rect x="75" y="22.1154" width="3.92308" height="5.88462" fill="white"/>
<rect x="81.5386" y="9.03845" width="3.92308" height="18.9615" fill="white"/>
<rect x="88" y="18" width="4" height="10" fill="white"/>
<path d="M8.596 28L0.672 8.4H4.172L10.36 24.276H9.128L15.372 8.4H18.816L10.836 28H8.596ZM24.7411 28.28C23.3971 28.28 22.1837 27.9813 21.1011 27.384C20.0371 26.768 19.1877 25.928 18.5531 24.864C17.9371 23.8 17.6291 22.6053 17.6291 21.28C17.6291 19.9547 17.9371 18.7693 18.5531 17.724C19.1691 16.66 19.9997 15.82 21.0451 15.204C22.1091 14.588 23.2851 14.28 24.5731 14.28C25.8237 14.28 26.9251 14.5693 27.8771 15.148C28.8477 15.7267 29.6037 16.52 30.1451 17.528C30.7051 18.536 30.9851 19.684 30.9851 20.972C30.9851 21.196 30.9664 21.4293 30.9291 21.672C30.9104 21.896 30.8731 22.148 30.8171 22.428H19.7851V19.908H29.2211L28.0731 20.916C28.0357 20.0947 27.8771 19.404 27.5971 18.844C27.3171 18.284 26.9157 17.8547 26.3931 17.556C25.8891 17.2573 25.2637 17.108 24.5171 17.108C23.7331 17.108 23.0517 17.276 22.4731 17.612C21.8944 17.948 21.4464 18.424 21.1291 19.04C20.8117 19.6373 20.6531 20.356 20.6531 21.196C20.6531 22.036 20.8211 22.7733 21.1571 23.408C21.4931 24.0427 21.9691 24.5373 22.5851 24.892C23.2011 25.228 23.9104 25.396 24.7131 25.396C25.4037 25.396 26.0384 25.2747 26.6171 25.032C27.2144 24.7893 27.7184 24.4347 28.1291 23.968L30.0891 25.956C29.4357 26.7213 28.6424 27.3 27.7091 27.692C26.7757 28.084 25.7864 28.28 24.7411 28.28ZM33.4541 28V14.56H36.5341V28H33.4541ZM36.5341 20.524L35.4701 19.992C35.4701 18.2933 35.8434 16.9213 36.5901 15.876C37.3554 14.812 38.5034 14.28 40.0341 14.28C40.7061 14.28 41.3128 14.4013 41.8541 14.644C42.3954 14.8867 42.8994 15.2787 43.3661 15.82L41.3501 17.892C41.1074 17.6307 40.8368 17.444 40.5381 17.332C40.2394 17.22 39.8941 17.164 39.5021 17.164C38.6434 17.164 37.9341 17.4347 37.3741 17.976C36.8141 18.5173 36.5341 19.3667 36.5341 20.524ZM48.9517 28.28C48.205 28.28 47.4863 28.1867 46.7957 28C46.105 27.7947 45.4703 27.5147 44.8917 27.16C44.313 26.7867 43.809 26.3387 43.3797 25.816L45.3397 23.856C45.8063 24.3973 46.3383 24.808 46.9357 25.088C47.5517 25.3493 48.2423 25.48 49.0077 25.48C49.6983 25.48 50.221 25.3773 50.5757 25.172C50.9303 24.9667 51.1077 24.668 51.1077 24.276C51.1077 23.8653 50.9397 23.548 50.6037 23.324C50.2677 23.1 49.829 22.9133 49.2877 22.764C48.765 22.596 48.205 22.428 47.6077 22.26C47.029 22.092 46.469 21.868 45.9277 21.588C45.405 21.2893 44.9757 20.888 44.6397 20.384C44.3037 19.88 44.1357 19.2267 44.1357 18.424C44.1357 17.5653 44.3317 16.828 44.7237 16.212C45.1343 15.596 45.7037 15.12 46.4317 14.784C47.1783 14.448 48.065 14.28 49.0917 14.28C50.1743 14.28 51.1263 14.476 51.9477 14.868C52.7877 15.2413 53.4877 15.8107 54.0477 16.576L52.0877 18.536C51.6957 18.0507 51.2477 17.6867 50.7437 17.444C50.2397 17.2013 49.661 17.08 49.0077 17.08C48.3917 17.08 47.9157 17.1733 47.5797 17.36C47.2437 17.5467 47.0757 17.8173 47.0757 18.172C47.0757 18.5453 47.2437 18.8347 47.5797 19.04C47.9157 19.2453 48.345 19.4227 48.8677 19.572C49.409 19.7213 49.969 19.8893 50.5477 20.076C51.145 20.244 51.705 20.4867 52.2277 20.804C52.769 21.1027 53.2077 21.5133 53.5437 22.036C53.8797 22.54 54.0477 23.2027 54.0477 24.024C54.0477 25.3307 53.5903 26.3667 52.6757 27.132C51.761 27.8973 50.5197 28.28 48.9517 28.28ZM62.8309 28.28C61.4869 28.28 60.2736 27.9813 59.1909 27.384C58.1269 26.768 57.2776 25.928 56.6429 24.864C56.0269 23.8 55.7189 22.6053 55.7189 21.28C55.7189 19.9547 56.0269 18.7693 56.6429 17.724C57.2589 16.66 58.0896 15.82 59.1349 15.204C60.1989 14.588 61.3749 14.28 62.6629 14.28C63.9136 14.28 65.0149 14.5693 65.9669 15.148C66.9376 15.7267 67.6936 16.52 68.2349 17.528C68.7949 18.536 69.0749 19.684 69.0749 20.972C69.0749 21.196 69.0562 21.4293 69.0189 21.672C69.0002 21.896 68.9629 22.148 68.9069 22.428H57.8749V19.908H67.3109L66.1629 20.916C66.1256 20.0947 65.9669 19.404 65.6869 18.844C65.4069 18.284 65.0056 17.8547 64.4829 17.556C63.9789 17.2573 63.3536 17.108 62.6069 17.108C61.8229 17.108 61.1416 17.276 60.5629 17.612C59.9842 17.948 59.5362 18.424 59.2189 19.04C58.9016 19.6373 58.7429 20.356 58.7429 21.196C58.7429 22.036 58.9109 22.7733 59.2469 23.408C59.5829 24.0427 60.0589 24.5373 60.6749 24.892C61.2909 25.228 62.0002 25.396 62.8029 25.396C63.4936 25.396 64.1282 25.2747 64.7069 25.032C65.3042 24.7893 65.8082 24.4347 66.2189 23.968L68.1789 25.956C67.5256 26.7213 66.7322 27.3 65.7989 27.692C64.8656 28.084 63.8762 28.28 62.8309 28.28Z" fill="white"/>
</svg>
