<svg width="80" height="69" viewBox="0 0 80 69" fill="none" xmlns="http://www.w3.org/2000/svg">
<path d="M59.8146 58.7156C59.8146 64.2236 54.2319 68.6849 47.3531 68.6849C40.4744 68.6849 34.8916 64.2236 34.8916 58.7156C34.8916 53.2077 40.4744 48.7464 47.3531 48.7464C54.2319 48.7464 59.8146 53.2077 59.8146 58.7156Z" fill="white"/>
<path fill-rule="evenodd" clip-rule="evenodd" d="M59.8157 8.86963V58.7157H54.8311V8.86963H59.8157Z" fill="white"/>
<path d="M54.8311 7.97236C54.8318 6.82045 55.2314 5.70434 55.962 4.81379C56.6926 3.92324 57.7091 3.31322 58.8387 3.08745L73.7925 0.0966822C74.5154 -0.047805 75.2613 -0.0301559 75.9765 0.148358C76.6918 0.326873 77.3585 0.661808 77.9287 1.12903C78.4989 1.59626 78.9584 2.18414 79.274 2.85033C79.5897 3.51651 79.7536 4.24442 79.7541 4.9816V13.8542L54.8311 18.8388V7.97236Z" fill="white"/>
<path fill-rule="evenodd" clip-rule="evenodd" d="M0 51.2388C0 50.5778 0.262581 49.9438 0.729979 49.4765C1.19738 49.0091 1.8313 48.7465 2.4923 48.7465H19.9384C20.5994 48.7465 21.2333 49.0091 21.7007 49.4765C22.1681 49.9438 22.4307 50.5778 22.4307 51.2388C22.4307 51.8998 22.1681 52.5337 21.7007 53.0011C21.2333 53.4685 20.5994 53.7311 19.9384 53.7311H2.4923C1.8313 53.7311 1.19738 53.4685 0.729979 53.0011C0.262581 52.5337 0 51.8998 0 51.2388ZM0 31.3004C0 30.6394 0.262581 30.0054 0.729979 29.538C1.19738 29.0706 1.8313 28.8081 2.4923 28.8081H39.8768C40.5378 28.8081 41.1718 29.0706 41.6392 29.538C42.1066 30.0054 42.3691 30.6394 42.3691 31.3004C42.3691 31.9614 42.1066 32.5953 41.6392 33.0627C41.1718 33.5301 40.5378 33.7927 39.8768 33.7927H2.4923C1.8313 33.7927 1.19738 33.5301 0.729979 33.0627C0.262581 32.5953 0 31.9614 0 31.3004ZM0 11.3619C0 10.7009 0.262581 10.067 0.729979 9.59961C1.19738 9.13221 1.8313 8.86963 2.4923 8.86963H39.8768C40.5378 8.86963 41.1718 9.13221 41.6392 9.59961C42.1066 10.067 42.3691 10.7009 42.3691 11.3619C42.3691 12.0229 42.1066 12.6569 41.6392 13.1243C41.1718 13.5917 40.5378 13.8542 39.8768 13.8542H2.4923C1.8313 13.8542 1.19738 13.5917 0.729979 13.1243C0.262581 12.6569 0 12.0229 0 11.3619Z" fill="white"/>
</svg>
