<svg width="69" height="69" viewBox="0 0 69 69" fill="none" xmlns="http://www.w3.org/2000/svg">
<path d="M64.1059 0C65.3203 0 66.485 0.482429 67.3437 1.34116C68.2024 2.19988 68.6849 3.36457 68.6849 4.57899V41.2109C68.6849 42.4253 68.2024 43.59 67.3437 44.4487C66.485 45.3075 65.3203 45.7899 64.1059 45.7899C62.8914 45.7899 61.7267 45.3075 60.868 44.4487C60.0093 43.59 59.5269 42.4253 59.5269 41.2109V4.57899C59.5269 3.36457 60.0093 2.19988 60.868 1.34116C61.7267 0.482429 62.8914 0 64.1059 0ZM0 64.1059C0 62.8914 0.482429 61.7267 1.34116 60.868C2.19988 60.0093 3.36457 59.5269 4.57899 59.5269H41.2109C42.4253 59.5269 43.59 60.0093 44.4487 60.868C45.3075 61.7267 45.7899 62.8914 45.7899 64.1059C45.7899 65.3203 45.3075 66.485 44.4487 67.3437C43.59 68.2024 42.4253 68.6849 41.2109 68.6849H4.57899C3.36457 68.6849 2.19988 68.2024 1.34116 67.3437C0.482429 66.485 0 65.3203 0 64.1059ZM16.9743 10.4996C16.1107 9.66553 14.954 9.20399 13.7534 9.21442C12.5529 9.22485 11.4044 9.70642 10.5554 10.5554C9.70642 11.4044 9.22485 12.5529 9.21442 13.7534C9.20399 14.954 9.66553 16.1107 10.4996 16.9743L42.5526 49.0272C43.4162 49.8613 44.5728 50.3229 45.7734 50.3124C46.974 50.302 48.1225 49.8204 48.9715 48.9715C49.8204 48.1225 50.302 46.974 50.3124 45.7734C50.3229 44.5728 49.8613 43.4162 49.0272 42.5526L16.9743 10.4996Z" fill="white"/>
</svg>
