<svg width="90" height="82" viewBox="0 0 90 82" fill="none" xmlns="http://www.w3.org/2000/svg">
<g clip-path="url(#clip0_91_9)">
<path d="M79.9498 12.5764L46.0372 -0.141846L43.0187 7.90047L55.1917 12.4691H10.1753C5.4392 12.4691 1.58765 16.3206 1.58765 21.0567V72.5825C1.58765 77.3186 5.4392 81.1702 10.1753 81.1702H78.8763C83.6124 81.1702 87.464 77.3186 87.464 72.5825V21.0567C87.464 16.6856 84.1706 13.1132 79.9498 12.5764ZM10.1753 72.5825V42.5258H78.8763V33.9382H10.1753V21.0567H78.8763L78.8806 72.5825H10.1753Z" fill="white"/>
<path d="M63.8481 68.2887C69.7766 68.2887 74.5826 63.4827 74.5826 57.5541C74.5826 51.6256 69.7766 46.8196 63.8481 46.8196C57.9195 46.8196 53.1135 51.6256 53.1135 57.5541C53.1135 63.4827 57.9195 68.2887 63.8481 68.2887Z" fill="white"/>
<path d="M18.7629 55.4072H40.2277V63.9949H18.7629V55.4072Z" fill="white"/>
</g>
<defs>
<clipPath id="clip0_91_9">
<rect width="89.0516" height="82" fill="white"/>
</clipPath>
</defs>
</svg>
