<svg width="63" height="75" viewBox="0 0 63 75" fill="none" xmlns="http://www.w3.org/2000/svg">
<path d="M27.0322 27.948L26.2378 32.6187H30.9756H57.2475C58.1865 32.6187 58.9713 33.4035 58.9713 34.3424V38.9214V39.1559L58.9987 39.3888C59.0073 39.4619 58.9884 39.678 58.8695 39.9009L58.7894 40.0511L58.7223 40.2076L46.7062 68.2452C46.7058 68.2463 46.7053 68.2473 46.7049 68.2483C46.1168 69.6079 44.7058 70.4975 43.1522 70.4143L43.0453 70.4086H42.9382H11.4576C7.37066 70.4086 4.01016 67.0481 4.01016 62.9611V34.3424V34.2372L4.00463 34.1322C3.95372 33.1649 4.3285 32.2181 5.07422 31.5L5.16142 31.416L5.24338 31.3269L28.7492 5.77716L29.7024 6.73046C30.0676 7.12929 30.2647 7.61285 30.2953 8.05497V8.76299L27.0322 27.948Z" stroke="white" stroke-width="8"/>
</svg>
